<?xml version='1.0' encoding='UTF-8'?>
<svg width="33mm" height="33mm" version="1.1" viewBox="0 0 33 33" xmlns="http://www.w3.org/2000/svg"><path d="M4,4H5V5H4zM5,4H6V5H5zM6,4H7V5H6zM7,4H8V5H7zM8,4H9V5H8zM9,4H10V5H9zM10,4H11V5H10zM13,4H14V5H13zM16,4H17V5H16zM19,4H20V5H19zM22,4H23V5H22zM23,4H24V5H23zM24,4H25V5H24zM25,4H26V5H25zM26,4H27V5H26zM27,4H28V5H27zM28,4H29V5H28zM4,5H5V6H4zM10,5H11V6H10zM14,5H15V6H14zM15,5H16V6H15zM16,5H17V6H16zM19,5H20V6H19zM20,5H21V6H20zM22,5H23V6H22zM28,5H29V6H28zM4,6H5V7H4zM6,6H7V7H6zM7,6H8V7H7zM8,6H9V7H8zM10,6H11V7H10zM12,6H13V7H12zM13,6H14V7H13zM14,6H15V7H14zM16,6H17V7H16zM22,6H23V7H22zM24,6H25V7H24zM25,6H26V7H25zM26,6H27V7H26zM28,6H29V7H28zM4,7H5V8H4zM6,7H7V8H6zM7,7H8V8H7zM8,7H9V8H8zM10,7H11V8H10zM13,7H14V8H13zM14,7H15V8H14zM15,7H16V8H15zM18,7H19V8H18zM19,7H20V8H19zM22,7H23V8H22zM24,7H25V8H24zM25,7H26V8H25zM26,7H27V8H26zM28,7H29V8H28zM4,8H5V9H4zM6,8H7V9H6zM7,8H8V9H7zM8,8H9V9H8zM10,8H11V9H10zM14,8H15V9H14zM19,8H20V9H19zM22,8H23V9H22zM24,8H25V9H24zM25,8H26V9H25zM26,8H27V9H26zM28,8H29V9H28zM4,9H5V10H4zM10,9H11V10H10zM13,9H14V10H13zM17,9H18V10H17zM18,9H19V10H18zM19,9H20V10H19zM22,9H23V10H22zM28,9H29V10H28zM4,10H5V11H4zM5,10H6V11H5zM6,10H7V11H6zM7,10H8V11H7zM8,10H9V11H8zM9,10H10V11H9zM10,10H11V11H10zM12,10H13V11H12zM14,10H15V11H14zM16,10H17V11H16zM18,10H19V11H18zM20,10H21V11H20zM22,10H23V11H22zM23,10H24V11H23zM24,10H25V11H24zM25,10H26V11H25zM26,10H27V11H26zM27,10H28V11H27zM28,10H29V11H28zM12,11H13V12H12zM13,11H14V12H13zM14,11H15V12H14zM16,11H17V12H16zM17,11H18V12H17zM19,11H20V12H19zM20,11H21V12H20zM4,12H5V13H4zM5,12H6V13H5zM6,12H7V13H6zM8,12H9V13H8zM9,12H10V13H9zM10,12H11V13H10zM11,12H12V13H11zM12,12H13V13H12zM14,12H15V13H14zM15,12H16V13H15zM17,12H18V13H17zM18,12H19V13H18zM21,12H22V13H21zM22,12H23V13H22zM26,12H27V13H26zM4,13H5V14H4zM7,13H8V14H7zM8,13H9V14H8zM9,13H10V14H9zM11,13H12V14H11zM12,13H13V14H12zM14,13H15V14H14zM15,13H16V14H15zM20,13H21V14H20zM21,13H22V14H21zM22,13H23V14H22zM28,13H29V14H28zM7,14H8V15H7zM10,14H11V15H10zM11,14H12V15H11zM12,14H13V15H12zM13,14H14V15H13zM17,14H18V15H17zM21,14H22V15H21zM22,14H23V15H22zM24,14H25V15H24zM26,14H27V15H26zM27,14H28V15H27zM28,14H29V15H28zM4,15H5V16H4zM9,15H10V16H9zM12,15H13V16H12zM15,15H16V16H15zM17,15H18V16H17zM19,15H20V16H19zM20,15H21V16H20zM27,15H28V16H27zM5,16H6V17H5zM6,16H7V17H6zM10,16H11V17H10zM12,16H13V17H12zM16,16H17V17H16zM17,16H18V17H17zM19,16H20V17H19zM20,16H21V17H20zM21,16H22V17H21zM22,16H23V17H22zM25,16H26V17H25zM27,16H28V17H27zM28,16H29V17H28zM5,17H6V18H5zM6,17H7V18H6zM11,17H12V18H11zM12,17H13V18H12zM13,17H14V18H13zM15,17H16V18H15zM16,17H17V18H16zM17,17H18V18H17zM21,17H22V18H21zM22,17H23V18H22zM25,17H26V18H25zM28,17H29V18H28zM4,18H5V19H4zM6,18H7V19H6zM7,18H8V19H7zM8,18H9V19H8zM10,18H11V19H10zM11,18H12V19H11zM13,18H14V19H13zM14,18H15V19H14zM15,18H16V19H15zM16,18H17V19H16zM17,18H18V19H17zM18,18H19V19H18zM21,18H22V19H21zM23,18H24V19H23zM26,18H27V19H26zM27,18H28V19H27zM28,18H29V19H28zM5,19H6V20H5zM8,19H9V20H8zM11,19H12V20H11zM12,19H13V20H12zM14,19H15V20H14zM16,19H17V20H16zM17,19H18V20H17zM18,19H19V20H18zM19,19H20V20H19zM20,19H21V20H20zM21,19H22V20H21zM24,19H25V20H24zM27,19H28V20H27zM4,20H5V21H4zM6,20H7V21H6zM10,20H11V21H10zM11,20H12V21H11zM13,20H14V21H13zM14,20H15V21H14zM15,20H16V21H15zM17,20H18V21H17zM20,20H21V21H20zM21,20H22V21H21zM22,20H23V21H22zM23,20H24V21H23zM24,20H25V21H24zM25,20H26V21H25zM12,21H13V22H12zM15,21H16V22H15zM19,21H20V22H19zM20,21H21V22H20zM24,21H25V22H24zM25,21H26V22H25zM27,21H28V22H27zM28,21H29V22H28zM4,22H5V23H4zM5,22H6V23H5zM6,22H7V23H6zM7,22H8V23H7zM8,22H9V23H8zM9,22H10V23H9zM10,22H11V23H10zM12,22H13V23H12zM13,22H14V23H13zM17,22H18V23H17zM19,22H20V23H19zM20,22H21V23H20zM22,22H23V23H22zM24,22H25V23H24zM25,22H26V23H25zM27,22H28V23H27zM28,22H29V23H28zM4,23H5V24H4zM10,23H11V24H10zM12,23H13V24H12zM14,23H15V24H14zM15,23H16V24H15zM17,23H18V24H17zM18,23H19V24H18zM20,23H21V24H20zM24,23H25V24H24zM25,23H26V24H25zM28,23H29V24H28zM4,24H5V25H4zM6,24H7V25H6zM7,24H8V25H7zM8,24H9V25H8zM10,24H11V25H10zM12,24H13V25H12zM13,24H14V25H13zM16,24H17V25H16zM17,24H18V25H17zM20,24H21V25H20zM21,24H22V25H21zM22,24H23V25H22zM23,24H24V25H23zM24,24H25V25H24zM25,24H26V25H25zM27,24H28V25H27zM28,24H29V25H28zM4,25H5V26H4zM6,25H7V26H6zM7,25H8V26H7zM8,25H9V26H8zM10,25H11V26H10zM13,25H14V26H13zM14,25H15V26H14zM15,25H16V26H15zM16,25H17V26H16zM19,25H20V26H19zM23,25H24V26H23zM24,25H25V26H24zM25,25H26V26H25zM26,25H27V26H26zM4,26H5V27H4zM6,26H7V27H6zM7,26H8V27H7zM8,26H9V27H8zM10,26H11V27H10zM12,26H13V27H12zM13,26H14V27H13zM15,26H16V27H15zM16,26H17V27H16zM19,26H20V27H19zM20,26H21V27H20zM24,26H25V27H24zM28,26H29V27H28zM4,27H5V28H4zM10,27H11V28H10zM12,27H13V28H12zM13,27H14V28H13zM16,27H17V28H16zM17,27H18V28H17zM18,27H19V28H18zM20,27H21V28H20zM24,27H25V28H24zM25,27H26V28H25zM27,27H28V28H27zM4,28H5V29H4zM5,28H6V29H5zM6,28H7V29H6zM7,28H8V29H7zM8,28H9V29H8zM9,28H10V29H9zM10,28H11V29H10zM12,28H13V29H12zM13,28H14V29H13zM14,28H15V29H14zM15,28H16V29H15zM16,28H17V29H16zM18,28H19V29H18zM19,28H20V29H19zM20,28H21V29H20zM21,28H22V29H21zM22,28H23V29H22zM23,28H24V29H23zM27,28H28V29H27zM28,28H29V29H28z" id="qr-path" fill="#000000" fill-opacity="1" fill-rule="nonzero" stroke="none" /></svg>